<svg xmlns="http://www.w3.org/2000/svg" viewBox="270 20 260 260">
<defs><clipPath id="c"><circle cx="400" cy="150" r="120"/></clipPath></defs>
<circle cx="400" cy="150" r="120" fill="#0a0b08"/>
<g clip-path="url(#c)"><path d="M0.0 -7.3 L7.0 -6.8 L14.0 -6.3 L21.0 -5.6 L28.0 -4.9 L35.0 -4.1 L42.0 -3.2 L49.0 -2.3 L56.0 -1.2 L63.0 -0.1 L70.0 1.0 L77.0 2.2 L84.0 3.4 L91.0 4.6 L98.0 5.9 L105.0 7.1 L112.0 8.3 L119.0 9.5 L126.0 10.6 L133.0 11.7 L140.0 12.7 L147.0 13.7 L154.0 14.5 L161.0 15.3 L168.0 15.9 L175.0 16.4 L182.0 16.9 L189.0 17.2 L196.0 17.4 L203.0 17.4 L210.0 17.4 L217.0 17.2 L224.0 17.0 L231.0 16.6 L238.0 16.1 L245.0 15.6 L252.0 15.0 L259.0 14.3 L266.0 13.6 L273.0 12.8 L280.0 12.0 L287.0 11.1 L294.0 10.3 L301.0 9.4 L308.0 8.5 L315.0 7.7 L322.0 6.8 L329.0 6.0 L336.0 5.3 L343.0 4.5 L350.0 3.8 L357.0 3.1 L364.0 2.5 L371.0 1.9 L378.0 1.3 L385.0 0.8 L392.0 0.3 L399.0 -0.2 L406.0 -0.6 L413.0 -1.0 L420.0 -1.4 L427.0 -1.7 L434.0 -2.1 L441.0 -2.4 L448.0 -2.7 L455.0 -3.0 L462.0 -3.3 L469.0 -3.7 L476.0 -4.0 L483.0 -4.3 L490.0 -4.7 L497.0 -5.1 L504.0 -5.5 L511.0 -5.9 L518.0 -6.3 L525.0 -6.7 L532.0 -7.2 L539.0 -7.6 L546.0 -8.1 L553.0 -8.5 L560.0 -9.0 L567.0 -9.4 L574.0 -9.9 L581.0 -10.3 L588.0 -10.6 L595.0 -11.0 L602.0 -11.2 L609.0 -11.5 L616.0 -11.6 L623.0 -11.7 L630.0 -11.7 L637.0 -11.6 L644.0 -11.4 L651.0 -11.1 L658.0 -10.7 L665.0 -10.2 L672.0 -9.6 L679.0 -8.9 L686.0 -8.1 L693.0 -7.2 L700.0 -6.3 L707.0 -5.2 L714.0 -4.1 L721.0 -2.9 L728.0 -1.6 L735.0 -0.3 L742.0 1.0 L749.0 2.4 L756.0 3.7 L763.0 5.0 L770.0 6.4 L777.0 7.6 L784.0 8.9 L791.0 10.0 L798.0 11.1" fill="none" stroke="#c6f000" stroke-width="4"/><path d="M0.0 4.1 L7.0 4.7 L14.0 5.3 L21.0 6.0 L28.0 6.8 L35.0 7.7 L42.0 8.6 L49.0 9.6 L56.0 10.7 L63.0 11.8 L70.0 13.0 L77.0 14.1 L84.0 15.4 L91.0 16.6 L98.0 17.8 L105.0 19.0 L112.0 20.1 L119.0 21.2 L126.0 22.3 L133.0 23.3 L140.0 24.2 L147.0 25.0 L154.0 25.7 L161.0 26.4 L168.0 26.9 L175.0 27.3 L182.0 27.6 L189.0 27.7 L196.0 27.8 L203.0 27.7 L210.0 27.6 L217.0 27.3 L224.0 26.9 L231.0 26.5 L238.0 25.9 L245.0 25.3 L252.0 24.6 L259.0 23.9 L266.0 23.1 L273.0 22.3 L280.0 21.5 L287.0 20.6 L294.0 19.8 L301.0 18.9 L308.0 18.1 L315.0 17.3 L322.0 16.6 L329.0 15.8 L336.0 15.1 L343.0 14.4 L350.0 13.8 L357.0 13.2 L364.0 12.6 L371.0 12.1 L378.0 11.6 L385.0 11.1 L392.0 10.7 L399.0 10.3 L406.0 9.9 L413.0 9.5 L420.0 9.2 L427.0 8.8 L434.0 8.5 L441.0 8.2 L448.0 7.8 L455.0 7.5 L462.0 7.2 L469.0 6.8 L476.0 6.4 L483.0 6.1 L490.0 5.7 L497.0 5.3 L504.0 4.9 L511.0 4.5 L518.0 4.0 L525.0 3.6 L532.0 3.1 L539.0 2.7 L546.0 2.2 L553.0 1.7 L560.0 1.3 L567.0 0.9 L574.0 0.5 L581.0 0.2 L588.0 -0.2 L595.0 -0.4 L602.0 -0.6 L609.0 -0.8 L616.0 -0.8 L623.0 -0.8 L630.0 -0.7 L637.0 -0.5 L644.0 -0.2 L651.0 0.2 L658.0 0.7 L665.0 1.3 L672.0 2.0 L679.0 2.8 L686.0 3.6 L693.0 4.6 L700.0 5.7 L707.0 6.8 L714.0 8.0 L721.0 9.2 L728.0 10.5 L735.0 11.8 L742.0 13.2 L749.0 14.5 L756.0 15.8 L763.0 17.1 L770.0 18.4 L777.0 19.6 L784.0 20.7 L791.0 21.8 L798.0 22.8" fill="none" stroke="#c6f000" stroke-width="4"/><path d="M0.0 15.6 L7.0 16.3 L14.0 16.9 L21.0 17.7 L28.0 18.6 L35.0 19.5 L42.0 20.5 L49.0 21.5 L56.0 22.6 L63.0 23.7 L70.0 24.9 L77.0 26.1 L84.0 27.3 L91.0 28.4 L98.0 29.6 L105.0 30.7 L112.0 31.8 L119.0 32.8 L126.0 33.8 L133.0 34.7 L140.0 35.5 L147.0 36.2 L154.0 36.8 L161.0 37.3 L168.0 37.7 L175.0 37.9 L182.0 38.1 L189.0 38.1 L196.0 38.1 L203.0 37.9 L210.0 37.6 L217.0 37.2 L224.0 36.7 L231.0 36.2 L238.0 35.5 L245.0 34.9 L252.0 34.1 L259.0 33.4 L266.0 32.6 L273.0 31.7 L280.0 30.9 L287.0 30.1 L294.0 29.3 L301.0 28.5 L308.0 27.8 L315.0 27.0 L322.0 26.3 L329.0 25.7 L336.0 25.0 L343.0 24.5 L350.0 23.9 L357.0 23.4 L364.0 22.9 L371.0 22.5 L378.0 22.0 L385.0 21.6 L392.0 21.3 L399.0 20.9 L406.0 20.6 L413.0 20.2 L420.0 19.9 L427.0 19.6 L434.0 19.2 L441.0 18.9 L448.0 18.5 L455.0 18.2 L462.0 17.8 L469.0 17.4 L476.0 17.0 L483.0 16.6 L490.0 16.2 L497.0 15.8 L504.0 15.4 L511.0 14.9 L518.0 14.4 L525.0 14.0 L532.0 13.5 L539.0 13.1 L546.0 12.6 L553.0 12.2 L560.0 11.8 L567.0 11.4 L574.0 11.0 L581.0 10.7 L588.0 10.5 L595.0 10.3 L602.0 10.1 L609.0 10.1 L616.0 10.1 L623.0 10.2 L630.0 10.4 L637.0 10.7 L644.0 11.1 L651.0 11.6 L658.0 12.2 L665.0 12.9 L672.0 13.7 L679.0 14.5 L686.0 15.5 L693.0 16.5 L700.0 17.6 L707.0 18.8 L714.0 20.0 L721.0 21.3 L728.0 22.6 L735.0 23.9 L742.0 25.3 L749.0 26.6 L756.0 27.8 L763.0 29.1 L770.0 30.3 L777.0 31.4 L784.0 32.5 L791.0 33.4 L798.0 34.3" fill="none" stroke="#c6f000" stroke-width="4"/><path d="M0.0 27.2 L7.0 27.9 L14.0 28.6 L21.0 29.5 L28.0 30.4 L35.0 31.3 L42.0 32.3 L49.0 33.4 L56.0 34.5 L63.0 35.6 L70.0 36.8 L77.0 37.9 L84.0 39.1 L91.0 40.2 L98.0 41.3 L105.0 42.4 L112.0 43.4 L119.0 44.3 L126.0 45.2 L133.0 45.9 L140.0 46.6 L147.0 47.2 L154.0 47.7 L161.0 48.0 L168.0 48.3 L175.0 48.4 L182.0 48.4 L189.0 48.3 L196.0 48.1 L203.0 47.8 L210.0 47.4 L217.0 46.9 L224.0 46.4 L231.0 45.7 L238.0 45.0 L245.0 44.3 L252.0 43.5 L259.0 42.8 L266.0 42.0 L273.0 41.2 L280.0 40.4 L287.0 39.6 L294.0 38.8 L301.0 38.1 L308.0 37.4 L315.0 36.8 L322.0 36.2 L329.0 35.6 L336.0 35.1 L343.0 34.6 L350.0 34.2 L357.0 33.8 L364.0 33.4 L371.0 33.0 L378.0 32.7 L385.0 32.3 L392.0 32.0 L399.0 31.7 L406.0 31.4 L413.0 31.1 L420.0 30.8 L427.0 30.5 L434.0 30.1 L441.0 29.8 L448.0 29.4 L455.0 29.0 L462.0 28.6 L469.0 28.2 L476.0 27.8 L483.0 27.4 L490.0 26.9 L497.0 26.4 L504.0 26.0 L511.0 25.5 L518.0 25.0 L525.0 24.5 L532.0 24.0 L539.0 23.6 L546.0 23.1 L553.0 22.7 L560.0 22.3 L567.0 22.0 L574.0 21.7 L581.0 21.4 L588.0 21.2 L595.0 21.1 L602.0 21.0 L609.0 21.1 L616.0 21.2 L623.0 21.4 L630.0 21.7 L637.0 22.1 L644.0 22.5 L651.0 23.1 L658.0 23.8 L665.0 24.6 L672.0 25.4 L679.0 26.4 L686.0 27.4 L693.0 28.5 L700.0 29.7 L707.0 30.9 L714.0 32.1 L721.0 33.4 L728.0 34.7 L735.0 36.0 L742.0 37.3 L749.0 38.6 L756.0 39.8 L763.0 41.0 L770.0 42.1 L777.0 43.1 L784.0 44.1 L791.0 44.9 L798.0 45.6" fill="none" stroke="#c6f000" stroke-width="4"/><path d="M0.0 38.8 L7.0 39.6 L14.0 40.4 L21.0 41.2 L28.0 42.2 L35.0 43.1 L42.0 44.2 L49.0 45.3 L56.0 46.4 L63.0 47.5 L70.0 48.6 L77.0 49.7 L84.0 50.8 L91.0 51.9 L98.0 52.9 L105.0 53.9 L112.0 54.8 L119.0 55.6 L126.0 56.4 L133.0 57.0 L140.0 57.6 L147.0 58.0 L154.0 58.4 L161.0 58.6 L168.0 58.7 L175.0 58.7 L182.0 58.5 L189.0 58.3 L196.0 58.0 L203.0 57.6 L210.0 57.1 L217.0 56.5 L224.0 55.8 L231.0 55.1 L238.0 54.4 L245.0 53.6 L252.0 52.9 L259.0 52.1 L266.0 51.3 L273.0 50.5 L280.0 49.8 L287.0 49.1 L294.0 48.4 L301.0 47.8 L308.0 47.2 L315.0 46.6 L322.0 46.1 L329.0 45.7 L336.0 45.3 L343.0 44.9 L350.0 44.6 L357.0 44.3 L364.0 44.0 L371.0 43.7 L378.0 43.4 L385.0 43.2 L392.0 42.9 L399.0 42.7 L406.0 42.4 L413.0 42.1 L420.0 41.8 L427.0 41.5 L434.0 41.2 L441.0 40.8 L448.0 40.4 L455.0 40.0 L462.0 39.6 L469.0 39.1 L476.0 38.7 L483.0 38.2 L490.0 37.7 L497.0 37.2 L504.0 36.7 L511.0 36.2 L518.0 35.7 L525.0 35.2 L532.0 34.7 L539.0 34.2 L546.0 33.8 L553.0 33.4 L560.0 33.0 L567.0 32.7 L574.0 32.5 L581.0 32.3 L588.0 32.1 L595.0 32.1 L602.0 32.1 L609.0 32.2 L616.0 32.4 L623.0 32.7 L630.0 33.0 L637.0 33.5 L644.0 34.1 L651.0 34.7 L658.0 35.5 L665.0 36.3 L672.0 37.3 L679.0 38.3 L686.0 39.4 L693.0 40.5 L700.0 41.7 L707.0 42.9 L714.0 44.2 L721.0 45.5 L728.0 46.8 L735.0 48.0 L742.0 49.3 L749.0 50.5 L756.0 51.6 L763.0 52.7 L770.0 53.7 L777.0 54.7 L784.0 55.5 L791.0 56.2 L798.0 56.8" fill="none" stroke="#c6f000" stroke-width="4"/><path d="M0.0 50.5 L7.0 51.2 L14.0 52.1 L21.0 53.0 L28.0 54.0 L35.0 55.0 L42.0 56.0 L49.0 57.1 L56.0 58.1 L63.0 59.2 L70.0 60.3 L77.0 61.4 L84.0 62.4 L91.0 63.4 L98.0 64.4 L105.0 65.2 L112.0 66.0 L119.0 66.8 L126.0 67.4 L133.0 67.9 L140.0 68.3 L147.0 68.6 L154.0 68.8 L161.0 68.9 L168.0 68.9 L175.0 68.7 L182.0 68.5 L189.0 68.1 L196.0 67.7 L203.0 67.2 L210.0 66.6 L217.0 65.9 L224.0 65.2 L231.0 64.4 L238.0 63.7 L245.0 62.9 L252.0 62.1 L259.0 61.3 L266.0 60.6 L273.0 59.9 L280.0 59.2 L287.0 58.6 L294.0 58.0 L301.0 57.4 L308.0 57.0 L315.0 56.5 L322.0 56.2 L329.0 55.8 L336.0 55.5 L343.0 55.3 L350.0 55.1 L357.0 54.9 L364.0 54.7 L371.0 54.5 L378.0 54.4 L385.0 54.2 L392.0 54.0 L399.0 53.8 L406.0 53.6 L413.0 53.3 L420.0 53.0 L427.0 52.7 L434.0 52.4 L441.0 52.0 L448.0 51.6 L455.0 51.1 L462.0 50.7 L469.0 50.2 L476.0 49.7 L483.0 49.1 L490.0 48.6 L497.0 48.1 L504.0 47.5 L511.0 47.0 L518.0 46.5 L525.0 45.9 L532.0 45.5 L539.0 45.0 L546.0 44.6 L553.0 44.2 L560.0 43.9 L567.0 43.6 L574.0 43.4 L581.0 43.2 L588.0 43.1 L595.0 43.1 L602.0 43.2 L609.0 43.4 L616.0 43.7 L623.0 44.0 L630.0 44.5 L637.0 45.0 L644.0 45.7 L651.0 46.4 L658.0 47.3 L665.0 48.2 L672.0 49.2 L679.0 50.2 L686.0 51.4 L693.0 52.5 L700.0 53.7 L707.0 55.0 L714.0 56.2 L721.0 57.5 L728.0 58.7 L735.0 60.0 L742.0 61.1 L749.0 62.3 L756.0 63.3 L763.0 64.3 L770.0 65.2 L777.0 66.1 L784.0 66.8 L791.0 67.3 L798.0 67.8" fill="none" stroke="#c6f000" stroke-width="4"/><path d="M0.0 62.1 L7.0 62.9 L14.0 63.8 L21.0 64.7 L28.0 65.7 L35.0 66.7 L42.0 67.8 L49.0 68.8 L56.0 69.9 L63.0 70.9 L70.0 71.9 L77.0 72.9 L84.0 73.9 L91.0 74.8 L98.0 75.7 L105.0 76.4 L112.0 77.1 L119.0 77.7 L126.0 78.2 L133.0 78.6 L140.0 78.9 L147.0 79.0 L154.0 79.1 L161.0 79.0 L168.0 78.9 L175.0 78.6 L182.0 78.2 L189.0 77.7 L196.0 77.2 L203.0 76.6 L210.0 75.9 L217.0 75.2 L224.0 74.4 L231.0 73.6 L238.0 72.8 L245.0 72.0 L252.0 71.3 L259.0 70.5 L266.0 69.8 L273.0 69.2 L280.0 68.6 L287.0 68.0 L294.0 67.5 L301.0 67.1 L308.0 66.8 L315.0 66.5 L322.0 66.2 L329.0 66.0 L336.0 65.9 L343.0 65.8 L350.0 65.7 L357.0 65.6 L364.0 65.5 L371.0 65.5 L378.0 65.4 L385.0 65.3 L392.0 65.2 L399.0 65.0 L406.0 64.8 L413.0 64.6 L420.0 64.3 L427.0 64.0 L434.0 63.7 L441.0 63.3 L448.0 62.8 L455.0 62.4 L462.0 61.8 L469.0 61.3 L476.0 60.8 L483.0 60.2 L490.0 59.6 L497.0 59.0 L504.0 58.5 L511.0 57.9 L518.0 57.4 L525.0 56.8 L532.0 56.3 L539.0 55.9 L546.0 55.5 L553.0 55.1 L560.0 54.8 L567.0 54.5 L574.0 54.4 L581.0 54.3 L588.0 54.3 L595.0 54.3 L602.0 54.5 L609.0 54.7 L616.0 55.1 L623.0 55.5 L630.0 56.0 L637.0 56.7 L644.0 57.4 L651.0 58.2 L658.0 59.1 L665.0 60.1 L672.0 61.1 L679.0 62.2 L686.0 63.3 L693.0 64.5 L700.0 65.7 L707.0 67.0 L714.0 68.2 L721.0 69.4 L728.0 70.6 L735.0 71.8 L742.0 72.9 L749.0 74.0 L756.0 74.9 L763.0 75.8 L770.0 76.6 L777.0 77.3 L784.0 77.8 L791.0 78.3 L798.0 78.6" fill="none" stroke="#c6f000" stroke-width="4"/><path d="M0.0 73.8 L7.0 74.6 L14.0 75.5 L21.0 76.5 L28.0 77.4 L35.0 78.4 L42.0 79.4 L49.0 80.5 L56.0 81.5 L63.0 82.5 L70.0 83.4 L77.0 84.4 L84.0 85.3 L91.0 86.1 L98.0 86.8 L105.0 87.5 L112.0 88.0 L119.0 88.5 L126.0 88.9 L133.0 89.1 L140.0 89.2 L147.0 89.3 L154.0 89.2 L161.0 89.0 L168.0 88.7 L175.0 88.3 L182.0 87.8 L189.0 87.2 L196.0 86.5 L203.0 85.8 L210.0 85.1 L217.0 84.3 L224.0 83.5 L231.0 82.7 L238.0 81.9 L245.0 81.1 L252.0 80.4 L259.0 79.7 L266.0 79.0 L273.0 78.4 L280.0 77.9 L287.0 77.5 L294.0 77.1 L301.0 76.8 L308.0 76.6 L315.0 76.4 L322.0 76.3 L329.0 76.3 L336.0 76.3 L343.0 76.3 L350.0 76.3 L357.0 76.4 L364.0 76.4 L371.0 76.5 L378.0 76.5 L385.0 76.5 L392.0 76.4 L399.0 76.3 L406.0 76.2 L413.0 76.0 L420.0 75.7 L427.0 75.4 L434.0 75.0 L441.0 74.6 L448.0 74.1 L455.0 73.6 L462.0 73.1 L469.0 72.5 L476.0 71.9 L483.0 71.3 L490.0 70.7 L497.0 70.1 L504.0 69.5 L511.0 68.9 L518.0 68.3 L525.0 67.8 L532.0 67.3 L539.0 66.8 L546.0 66.4 L553.0 66.1 L560.0 65.8 L567.0 65.6 L574.0 65.5 L581.0 65.4 L588.0 65.5 L595.0 65.6 L602.0 65.8 L609.0 66.1 L616.0 66.6 L623.0 67.1 L630.0 67.7 L637.0 68.4 L644.0 69.2 L651.0 70.0 L658.0 71.0 L665.0 72.0 L672.0 73.0 L679.0 74.2 L686.0 75.3 L693.0 76.5 L700.0 77.7 L707.0 78.9 L714.0 80.1 L721.0 81.3 L728.0 82.4 L735.0 83.5 L742.0 84.5 L749.0 85.5 L756.0 86.3 L763.0 87.1 L770.0 87.8 L777.0 88.3 L784.0 88.7 L791.0 89.0 L798.0 89.2" fill="none" stroke="#c6f000" stroke-width="4"/><path d="M0.0 85.4 L7.0 86.3 L14.0 87.2 L21.0 88.1 L28.0 89.1 L35.0 90.1 L42.0 91.0 L49.0 92.0 L56.0 93.0 L63.0 93.9 L70.0 94.8 L77.0 95.7 L84.0 96.4 L91.0 97.2 L98.0 97.8 L105.0 98.3 L112.0 98.7 L119.0 99.1 L126.0 99.3 L133.0 99.4 L140.0 99.4 L147.0 99.3 L154.0 99.0 L161.0 98.7 L168.0 98.3 L175.0 97.7 L182.0 97.1 L189.0 96.5 L196.0 95.7 L203.0 94.9 L210.0 94.1 L217.0 93.3 L224.0 92.4 L231.0 91.6 L238.0 90.8 L245.0 90.1 L252.0 89.4 L259.0 88.7 L266.0 88.2 L273.0 87.7 L280.0 87.3 L287.0 86.9 L294.0 86.7 L301.0 86.5 L308.0 86.5 L315.0 86.4 L322.0 86.5 L329.0 86.6 L336.0 86.7 L343.0 86.9 L350.0 87.0 L357.0 87.2 L364.0 87.4 L371.0 87.5 L378.0 87.6 L385.0 87.7 L392.0 87.7 L399.0 87.7 L406.0 87.5 L413.0 87.4 L420.0 87.1 L427.0 86.8 L434.0 86.4 L441.0 86.0 L448.0 85.5 L455.0 85.0 L462.0 84.4 L469.0 83.8 L476.0 83.2 L483.0 82.5 L490.0 81.9 L497.0 81.2 L504.0 80.6 L511.0 80.0 L518.0 79.4 L525.0 78.8 L532.0 78.3 L539.0 77.9 L546.0 77.5 L553.0 77.2 L560.0 76.9 L567.0 76.8 L574.0 76.7 L581.0 76.7 L588.0 76.8 L595.0 77.0 L602.0 77.3 L609.0 77.6 L616.0 78.1 L623.0 78.7 L630.0 79.4 L637.0 80.1 L644.0 80.9 L651.0 81.9 L658.0 82.8 L665.0 83.9 L672.0 85.0 L679.0 86.1 L686.0 87.3 L693.0 88.4 L700.0 89.6 L707.0 90.8 L714.0 91.9 L721.0 93.0 L728.0 94.1 L735.0 95.1 L742.0 96.0 L749.0 96.9 L756.0 97.6 L763.0 98.2 L770.0 98.8 L777.0 99.2 L784.0 99.4 L791.0 99.6 L798.0 99.6" fill="none" stroke="#c6f000" stroke-width="4"/><path d="M0.0 97.1 L7.0 97.9 L14.0 98.8 L21.0 99.7 L28.0 100.7 L35.0 101.6 L42.0 102.6 L49.0 103.5 L56.0 104.4 L63.0 105.2 L70.0 106.0 L77.0 106.8 L84.0 107.5 L91.0 108.1 L98.0 108.6 L105.0 109.0 L112.0 109.3 L119.0 109.5 L126.0 109.5 L133.0 109.5 L140.0 109.3 L147.0 109.1 L154.0 108.7 L161.0 108.3 L168.0 107.7 L175.0 107.1 L182.0 106.3 L189.0 105.6 L196.0 104.7 L203.0 103.9 L210.0 103.0 L217.0 102.2 L224.0 101.3 L231.0 100.5 L238.0 99.7 L245.0 99.0 L252.0 98.3 L259.0 97.8 L266.0 97.3 L273.0 96.9 L280.0 96.6 L287.0 96.4 L294.0 96.3 L301.0 96.2 L308.0 96.3 L315.0 96.4 L322.0 96.6 L329.0 96.9 L336.0 97.1 L343.0 97.4 L350.0 97.8 L357.0 98.1 L364.0 98.3 L371.0 98.6 L378.0 98.8 L385.0 98.9 L392.0 99.0 L399.0 99.0 L406.0 98.9 L413.0 98.8 L420.0 98.5 L427.0 98.2 L434.0 97.9 L441.0 97.4 L448.0 96.9 L455.0 96.3 L462.0 95.7 L469.0 95.1 L476.0 94.4 L483.0 93.8 L490.0 93.1 L497.0 92.4 L504.0 91.7 L511.0 91.1 L518.0 90.5 L525.0 90.0 L532.0 89.5 L539.0 89.0 L546.0 88.6 L553.0 88.3 L560.0 88.1 L567.0 88.0 L574.0 88.0 L581.0 88.0 L588.0 88.2 L595.0 88.4 L602.0 88.8 L609.0 89.2 L616.0 89.7 L623.0 90.4 L630.0 91.1 L637.0 91.9 L644.0 92.8 L651.0 93.7 L658.0 94.7 L665.0 95.8 L672.0 96.9 L679.0 98.0 L686.0 99.1 L693.0 100.3 L700.0 101.4 L707.0 102.5 L714.0 103.6 L721.0 104.7 L728.0 105.6 L735.0 106.5 L742.0 107.3 L749.0 108.1 L756.0 108.7 L763.0 109.2 L770.0 109.6 L777.0 109.8 L784.0 109.9 L791.0 109.9 L798.0 109.8" fill="none" stroke="#c6f000" stroke-width="4"/><path d="M0.0 108.6 L7.0 109.5 L14.0 110.4 L21.0 111.3 L28.0 112.2 L35.0 113.1 L42.0 113.9 L49.0 114.8 L56.0 115.6 L63.0 116.4 L70.0 117.1 L77.0 117.8 L84.0 118.3 L91.0 118.8 L98.0 119.2 L105.0 119.4 L112.0 119.6 L119.0 119.6 L126.0 119.6 L133.0 119.4 L140.0 119.1 L147.0 118.7 L154.0 118.2 L161.0 117.6 L168.0 116.9 L175.0 116.2 L182.0 115.4 L189.0 114.5 L196.0 113.6 L203.0 112.7 L210.0 111.8 L217.0 110.9 L224.0 110.1 L231.0 109.3 L238.0 108.5 L245.0 107.8 L252.0 107.3 L259.0 106.8 L266.0 106.4 L273.0 106.1 L280.0 105.9 L287.0 105.8 L294.0 105.8 L301.0 105.9 L308.0 106.1 L315.0 106.4 L322.0 106.7 L329.0 107.1 L336.0 107.6 L343.0 108.0 L350.0 108.4 L357.0 108.8 L364.0 109.2 L371.0 109.6 L378.0 109.9 L385.0 110.1 L392.0 110.2 L399.0 110.3 L406.0 110.3 L413.0 110.1 L420.0 109.9 L427.0 109.6 L434.0 109.2 L441.0 108.8 L448.0 108.3 L455.0 107.7 L462.0 107.0 L469.0 106.4 L476.0 105.7 L483.0 105.0 L490.0 104.3 L497.0 103.6 L504.0 102.9 L511.0 102.3 L518.0 101.7 L525.0 101.1 L532.0 100.6 L539.0 100.2 L546.0 99.8 L553.0 99.6 L560.0 99.4 L567.0 99.3 L574.0 99.3 L581.0 99.4 L588.0 99.6 L595.0 99.9 L602.0 100.3 L609.0 100.8 L616.0 101.4 L623.0 102.1 L630.0 102.8 L637.0 103.7 L644.0 104.6 L651.0 105.6 L658.0 106.6 L665.0 107.6 L672.0 108.7 L679.0 109.8 L686.0 111.0 L693.0 112.1 L700.0 113.2 L707.0 114.2 L714.0 115.2 L721.0 116.1 L728.0 117.0 L735.0 117.8 L742.0 118.5 L749.0 119.1 L756.0 119.6 L763.0 119.9 L770.0 120.1 L777.0 120.3 L784.0 120.2 L791.0 120.1 L798.0 119.8" fill="none" stroke="#c6f000" stroke-width="4"/><path d="M0.0 120.1 L7.0 121.0 L14.0 121.8 L21.0 122.7 L28.0 123.5 L35.0 124.4 L42.0 125.2 L49.0 126.0 L56.0 126.7 L63.0 127.4 L70.0 128.0 L77.0 128.5 L84.0 129.0 L91.0 129.3 L98.0 129.6 L105.0 129.7 L112.0 129.7 L119.0 129.6 L126.0 129.4 L133.0 129.1 L140.0 128.7 L147.0 128.1 L154.0 127.5 L161.0 126.8 L168.0 126.0 L175.0 125.2 L182.0 124.3 L189.0 123.4 L196.0 122.4 L203.0 121.5 L210.0 120.5 L217.0 119.6 L224.0 118.8 L231.0 118.0 L238.0 117.3 L245.0 116.6 L252.0 116.1 L259.0 115.7 L266.0 115.4 L273.0 115.2 L280.0 115.1 L287.0 115.2 L294.0 115.3 L301.0 115.6 L308.0 115.9 L315.0 116.4 L322.0 116.8 L329.0 117.4 L336.0 117.9 L343.0 118.5 L350.0 119.0 L357.0 119.6 L364.0 120.1 L371.0 120.5 L378.0 120.9 L385.0 121.2 L392.0 121.4 L399.0 121.5 L406.0 121.5 L413.0 121.4 L420.0 121.2 L427.0 120.9 L434.0 120.6 L441.0 120.1 L448.0 119.6 L455.0 119.0 L462.0 118.3 L469.0 117.6 L476.0 116.9 L483.0 116.2 L490.0 115.5 L497.0 114.8 L504.0 114.1 L511.0 113.4 L518.0 112.8 L525.0 112.3 L532.0 111.8 L539.0 111.4 L546.0 111.1 L553.0 110.9 L560.0 110.7 L567.0 110.7 L574.0 110.7 L581.0 110.9 L588.0 111.1 L595.0 111.5 L602.0 111.9 L609.0 112.5 L616.0 113.1 L623.0 113.8 L630.0 114.6 L637.0 115.5 L644.0 116.4 L651.0 117.4 L658.0 118.4 L665.0 119.5 L672.0 120.5 L679.0 121.6 L686.0 122.7 L693.0 123.7 L700.0 124.8 L707.0 125.7 L714.0 126.6 L721.0 127.5 L728.0 128.2 L735.0 128.9 L742.0 129.5 L749.0 129.9 L756.0 130.2 L763.0 130.5 L770.0 130.5 L777.0 130.5 L784.0 130.3 L791.0 130.0 L798.0 129.6" fill="none" stroke="#c6f000" stroke-width="4"/><path d="M0.0 131.5 L7.0 132.4 L14.0 133.2 L21.0 134.0 L28.0 134.8 L35.0 135.6 L42.0 136.3 L49.0 137.0 L56.0 137.7 L63.0 138.3 L70.0 138.7 L77.0 139.2 L84.0 139.5 L91.0 139.7 L98.0 139.8 L105.0 139.8 L112.0 139.7 L119.0 139.4 L126.0 139.1 L133.0 138.6 L140.0 138.1 L147.0 137.4 L154.0 136.7 L161.0 135.8 L168.0 135.0 L175.0 134.0 L182.0 133.1 L189.0 132.1 L196.0 131.1 L203.0 130.1 L210.0 129.1 L217.0 128.2 L224.0 127.4 L231.0 126.6 L238.0 126.0 L245.0 125.4 L252.0 124.9 L259.0 124.6 L266.0 124.4 L273.0 124.3 L280.0 124.4 L287.0 124.5 L294.0 124.8 L301.0 125.2 L308.0 125.7 L315.0 126.2 L322.0 126.9 L329.0 127.5 L336.0 128.2 L343.0 128.9 L350.0 129.6 L357.0 130.2 L364.0 130.8 L371.0 131.4 L378.0 131.8 L385.0 132.2 L392.0 132.4 L399.0 132.6 L406.0 132.6 L413.0 132.6 L420.0 132.4 L427.0 132.1 L434.0 131.8 L441.0 131.3 L448.0 130.8 L455.0 130.2 L462.0 129.5 L469.0 128.8 L476.0 128.1 L483.0 127.4 L490.0 126.6 L497.0 125.9 L504.0 125.2 L511.0 124.6 L518.0 124.0 L525.0 123.5 L532.0 123.0 L539.0 122.6 L546.0 122.4 L553.0 122.2 L560.0 122.1 L567.0 122.0 L574.0 122.1 L581.0 122.3 L588.0 122.6 L595.0 123.0 L602.0 123.5 L609.0 124.1 L616.0 124.8 L623.0 125.5 L630.0 126.4 L637.0 127.2 L644.0 128.2 L651.0 129.2 L658.0 130.2 L665.0 131.2 L672.0 132.2 L679.0 133.3 L686.0 134.3 L693.0 135.3 L700.0 136.2 L707.0 137.1 L714.0 137.9 L721.0 138.6 L728.0 139.3 L735.0 139.8 L742.0 140.2 L749.0 140.6 L756.0 140.7 L763.0 140.8 L770.0 140.7 L777.0 140.5 L784.0 140.2 L791.0 139.8 L798.0 139.2" fill="none" stroke="#c6f000" stroke-width="4"/><path d="M0.0 142.9 L7.0 143.7 L14.0 144.4 L21.0 145.2 L28.0 145.9 L35.0 146.7 L42.0 147.3 L49.0 147.9 L56.0 148.5 L63.0 148.9 L70.0 149.3 L77.0 149.6 L84.0 149.8 L91.0 149.9 L98.0 149.8 L105.0 149.7 L112.0 149.4 L119.0 149.0 L126.0 148.6 L133.0 148.0 L140.0 147.3 L147.0 146.5 L154.0 145.7 L161.0 144.7 L168.0 143.8 L175.0 142.8 L182.0 141.7 L189.0 140.7 L196.0 139.6 L203.0 138.6 L210.0 137.7 L217.0 136.8 L224.0 136.0 L231.0 135.2 L238.0 134.6 L245.0 134.1 L252.0 133.8 L259.0 133.5 L266.0 133.4 L273.0 133.4 L280.0 133.6 L287.0 133.9 L294.0 134.3 L301.0 134.8 L308.0 135.4 L315.0 136.1 L322.0 136.8 L329.0 137.6 L336.0 138.4 L343.0 139.2 L350.0 140.0 L357.0 140.8 L364.0 141.5 L371.0 142.1 L378.0 142.6 L385.0 143.0 L392.0 143.4 L399.0 143.6 L406.0 143.7 L413.0 143.6 L420.0 143.5 L427.0 143.2 L434.0 142.9 L441.0 142.4 L448.0 141.9 L455.0 141.3 L462.0 140.6 L469.0 139.9 L476.0 139.2 L483.0 138.5 L490.0 137.8 L497.0 137.1 L504.0 136.4 L511.0 135.8 L518.0 135.2 L525.0 134.7 L532.0 134.2 L539.0 133.9 L546.0 133.6 L553.0 133.5 L560.0 133.4 L567.0 133.5 L574.0 133.6 L581.0 133.8 L588.0 134.2 L595.0 134.6 L602.0 135.1 L609.0 135.8 L616.0 136.5 L623.0 137.2 L630.0 138.1 L637.0 139.0 L644.0 139.9 L651.0 140.9 L658.0 141.9 L665.0 142.9 L672.0 143.9 L679.0 144.8 L686.0 145.8 L693.0 146.7 L700.0 147.5 L707.0 148.3 L714.0 149.0 L721.0 149.6 L728.0 150.1 L735.0 150.5 L742.0 150.8 L749.0 151.0 L756.0 151.0 L763.0 150.9 L770.0 150.7 L777.0 150.4 L784.0 149.9 L791.0 149.3 L798.0 148.6" fill="none" stroke="#c6f000" stroke-width="4"/><path d="M0.0 154.1 L7.0 154.9 L14.0 155.6 L21.0 156.3 L28.0 156.9 L35.0 157.6 L42.0 158.1 L49.0 158.6 L56.0 159.1 L63.0 159.4 L70.0 159.7 L77.0 159.8 L84.0 159.9 L91.0 159.8 L98.0 159.7 L105.0 159.4 L112.0 159.0 L119.0 158.5 L126.0 157.9 L133.0 157.2 L140.0 156.4 L147.0 155.5 L154.0 154.5 L161.0 153.5 L168.0 152.5 L175.0 151.4 L182.0 150.3 L189.0 149.2 L196.0 148.1 L203.0 147.1 L210.0 146.2 L217.0 145.3 L224.0 144.5 L231.0 143.8 L238.0 143.3 L245.0 142.9 L252.0 142.6 L259.0 142.4 L266.0 142.4 L273.0 142.5 L280.0 142.8 L287.0 143.2 L294.0 143.7 L301.0 144.4 L308.0 145.1 L315.0 145.9 L322.0 146.7 L329.0 147.6 L336.0 148.6 L343.0 149.5 L350.0 150.4 L357.0 151.2 L364.0 152.0 L371.0 152.7 L378.0 153.3 L385.0 153.7 L392.0 154.1 L399.0 154.4 L406.0 154.5 L413.0 154.5 L420.0 154.4 L427.0 154.2 L434.0 153.8 L441.0 153.4 L448.0 152.9 L455.0 152.3 L462.0 151.6 L469.0 151.0 L476.0 150.2 L483.0 149.5 L490.0 148.8 L497.0 148.1 L504.0 147.5 L511.0 146.9 L518.0 146.3 L525.0 145.9 L532.0 145.5 L539.0 145.2 L546.0 144.9 L553.0 144.8 L560.0 144.8 L567.0 144.9 L574.0 145.1 L581.0 145.3 L588.0 145.7 L595.0 146.2 L602.0 146.8 L609.0 147.4 L616.0 148.1 L623.0 148.9 L630.0 149.8 L637.0 150.6 L644.0 151.6 L651.0 152.5 L658.0 153.5 L665.0 154.4 L672.0 155.4 L679.0 156.3 L686.0 157.1 L693.0 158.0 L700.0 158.7 L707.0 159.4 L714.0 160.0 L721.0 160.4 L728.0 160.8 L735.0 161.1 L742.0 161.2 L749.0 161.2 L756.0 161.1 L763.0 160.9 L770.0 160.5 L777.0 160.0 L784.0 159.4 L791.0 158.7 L798.0 157.9" fill="none" stroke="#c6f000" stroke-width="4"/><path d="M0.0 165.2 L7.0 165.9 L14.0 166.6 L21.0 167.2 L28.0 167.8 L35.0 168.3 L42.0 168.8 L49.0 169.2 L56.0 169.5 L63.0 169.7 L70.0 169.9 L77.0 169.9 L84.0 169.8 L91.0 169.6 L98.0 169.3 L105.0 168.9 L112.0 168.4 L119.0 167.7 L126.0 167.0 L133.0 166.2 L140.0 165.3 L147.0 164.3 L154.0 163.3 L161.0 162.2 L168.0 161.0 L175.0 159.9 L182.0 158.8 L189.0 157.7 L196.0 156.6 L203.0 155.6 L210.0 154.7 L217.0 153.8 L224.0 153.1 L231.0 152.4 L238.0 151.9 L245.0 151.6 L252.0 151.4 L259.0 151.3 L266.0 151.4 L273.0 151.6 L280.0 152.0 L287.0 152.5 L294.0 153.1 L301.0 153.9 L308.0 154.7 L315.0 155.6 L322.0 156.6 L329.0 157.6 L336.0 158.6 L343.0 159.6 L350.0 160.6 L357.0 161.5 L364.0 162.3 L371.0 163.1 L378.0 163.8 L385.0 164.3 L392.0 164.7 L399.0 165.0 L406.0 165.2 L413.0 165.2 L420.0 165.2 L427.0 165.0 L434.0 164.6 L441.0 164.2 L448.0 163.7 L455.0 163.2 L462.0 162.5 L469.0 161.9 L476.0 161.2 L483.0 160.5 L490.0 159.8 L497.0 159.2 L504.0 158.5 L511.0 158.0 L518.0 157.5 L525.0 157.0 L532.0 156.7 L539.0 156.4 L546.0 156.2 L553.0 156.1 L560.0 156.2 L567.0 156.3 L574.0 156.5 L581.0 156.8 L588.0 157.3 L595.0 157.8 L602.0 158.3 L609.0 159.0 L616.0 159.7 L623.0 160.5 L630.0 161.4 L637.0 162.3 L644.0 163.2 L651.0 164.1 L658.0 165.0 L665.0 165.9 L672.0 166.7 L679.0 167.6 L686.0 168.4 L693.0 169.1 L700.0 169.7 L707.0 170.3 L714.0 170.7 L721.0 171.1 L728.0 171.3 L735.0 171.4 L742.0 171.4 L749.0 171.3 L756.0 171.0 L763.0 170.6 L770.0 170.1 L777.0 169.5 L784.0 168.7 L791.0 167.9 L798.0 166.9" fill="none" stroke="#c6f000" stroke-width="4"/><path d="M0.0 176.2 L7.0 176.9 L14.0 177.5 L21.0 178.0 L28.0 178.5 L35.0 178.9 L42.0 179.3 L49.0 179.6 L56.0 179.8 L63.0 179.9 L70.0 179.9 L77.0 179.8 L84.0 179.6 L91.0 179.3 L98.0 178.8 L105.0 178.3 L112.0 177.6 L119.0 176.9 L126.0 176.0 L133.0 175.1 L140.0 174.1 L147.0 173.0 L154.0 171.9 L161.0 170.7 L168.0 169.6 L175.0 168.4 L182.0 167.2 L189.0 166.1 L196.0 165.1 L203.0 164.1 L210.0 163.1 L217.0 162.3 L224.0 161.6 L231.0 161.1 L238.0 160.6 L245.0 160.4 L252.0 160.2 L259.0 160.2 L266.0 160.4 L273.0 160.8 L280.0 161.2 L287.0 161.8 L294.0 162.6 L301.0 163.4 L308.0 164.3 L315.0 165.4 L322.0 166.4 L329.0 167.5 L336.0 168.6 L343.0 169.7 L350.0 170.7 L357.0 171.7 L364.0 172.6 L371.0 173.4 L378.0 174.1 L385.0 174.7 L392.0 175.2 L399.0 175.5 L406.0 175.8 L413.0 175.8 L420.0 175.8 L427.0 175.6 L434.0 175.3 L441.0 174.9 L448.0 174.5 L455.0 173.9 L462.0 173.3 L469.0 172.7 L476.0 172.1 L483.0 171.4 L490.0 170.7 L497.0 170.1 L504.0 169.5 L511.0 169.0 L518.0 168.5 L525.0 168.1 L532.0 167.8 L539.0 167.6 L546.0 167.5 L553.0 167.5 L560.0 167.5 L567.0 167.7 L574.0 168.0 L581.0 168.3 L588.0 168.8 L595.0 169.3 L602.0 169.9 L609.0 170.6 L616.0 171.3 L623.0 172.1 L630.0 172.9 L637.0 173.8 L644.0 174.6 L651.0 175.5 L658.0 176.4 L665.0 177.2 L672.0 178.0 L679.0 178.7 L686.0 179.4 L693.0 180.0 L700.0 180.5 L707.0 181.0 L714.0 181.3 L721.0 181.5 L728.0 181.6 L735.0 181.6 L742.0 181.4 L749.0 181.1 L756.0 180.7 L763.0 180.2 L770.0 179.5 L777.0 178.8 L784.0 177.9 L791.0 177.0 L798.0 175.9" fill="none" stroke="#c6f000" stroke-width="4"/><path d="M0.0 187.1 L7.0 187.7 L14.0 188.2 L21.0 188.6 L28.0 189.0 L35.0 189.4 L42.0 189.6 L49.0 189.8 L56.0 189.9 L63.0 189.9 L70.0 189.7 L77.0 189.5 L84.0 189.2 L91.0 188.7 L98.0 188.1 L105.0 187.5 L112.0 186.7 L119.0 185.8 L126.0 184.9 L133.0 183.9 L140.0 182.8 L147.0 181.6 L154.0 180.4 L161.0 179.2 L168.0 178.0 L175.0 176.8 L182.0 175.7 L189.0 174.6 L196.0 173.5 L203.0 172.5 L210.0 171.7 L217.0 170.9 L224.0 170.2 L231.0 169.7 L238.0 169.4 L245.0 169.2 L252.0 169.1 L259.0 169.2 L266.0 169.5 L273.0 169.9 L280.0 170.5 L287.0 171.2 L294.0 172.0 L301.0 173.0 L308.0 174.0 L315.0 175.1 L322.0 176.2 L329.0 177.4 L336.0 178.5 L343.0 179.7 L350.0 180.8 L357.0 181.8 L364.0 182.8 L371.0 183.6 L378.0 184.4 L385.0 185.0 L392.0 185.5 L399.0 185.9 L406.0 186.2 L413.0 186.3 L420.0 186.3 L427.0 186.1 L434.0 185.9 L441.0 185.5 L448.0 185.1 L455.0 184.6 L462.0 184.0 L469.0 183.4 L476.0 182.8 L483.0 182.2 L490.0 181.6 L497.0 181.0 L504.0 180.5 L511.0 180.0 L518.0 179.6 L525.0 179.2 L532.0 179.0 L539.0 178.8 L546.0 178.7 L553.0 178.7 L560.0 178.9 L567.0 179.1 L574.0 179.4 L581.0 179.7 L588.0 180.2 L595.0 180.8 L602.0 181.4 L609.0 182.1 L616.0 182.8 L623.0 183.6 L630.0 184.4 L637.0 185.2 L644.0 186.0 L651.0 186.8 L658.0 187.6 L665.0 188.4 L672.0 189.1 L679.0 189.7 L686.0 190.3 L693.0 190.8 L700.0 191.2 L707.0 191.5 L714.0 191.6 L721.0 191.7 L728.0 191.7 L735.0 191.5 L742.0 191.2 L749.0 190.8 L756.0 190.2 L763.0 189.6 L770.0 188.8 L777.0 187.9 L784.0 186.9 L791.0 185.9 L798.0 184.7" fill="none" stroke="#c6f000" stroke-width="4"/><path d="M0.0 197.9 L7.0 198.3 L14.0 198.8 L21.0 199.1 L28.0 199.4 L35.0 199.7 L42.0 199.8 L49.0 199.9 L56.0 199.8 L63.0 199.7 L70.0 199.4 L77.0 199.1 L84.0 198.6 L91.0 198.0 L98.0 197.3 L105.0 196.5 L112.0 195.7 L119.0 194.7 L126.0 193.7 L133.0 192.6 L140.0 191.4 L147.0 190.2 L154.0 189.0 L161.0 187.7 L168.0 186.5 L175.0 185.3 L182.0 184.1 L189.0 183.0 L196.0 182.0 L203.0 181.0 L210.0 180.2 L217.0 179.5 L224.0 178.9 L231.0 178.5 L238.0 178.2 L245.0 178.1 L252.0 178.1 L259.0 178.3 L266.0 178.7 L273.0 179.2 L280.0 179.8 L287.0 180.6 L294.0 181.5 L301.0 182.5 L308.0 183.6 L315.0 184.8 L322.0 186.0 L329.0 187.2 L336.0 188.4 L343.0 189.6 L350.0 190.8 L357.0 191.8 L364.0 192.8 L371.0 193.8 L378.0 194.5 L385.0 195.2 L392.0 195.8 L399.0 196.2 L406.0 196.4 L413.0 196.6 L420.0 196.6 L427.0 196.5 L434.0 196.3 L441.0 196.0 L448.0 195.6 L455.0 195.1 L462.0 194.6 L469.0 194.1 L476.0 193.5 L483.0 192.9 L490.0 192.4 L497.0 191.9 L504.0 191.4 L511.0 191.0 L518.0 190.6 L525.0 190.3 L532.0 190.1 L539.0 190.0 L546.0 189.9 L553.0 190.0 L560.0 190.1 L567.0 190.4 L574.0 190.7 L581.0 191.1 L588.0 191.6 L595.0 192.2 L602.0 192.8 L609.0 193.5 L616.0 194.2 L623.0 195.0 L630.0 195.7 L637.0 196.5 L644.0 197.3 L651.0 198.0 L658.0 198.7 L665.0 199.4 L672.0 200.0 L679.0 200.5 L686.0 201.0 L693.0 201.4 L700.0 201.6 L707.0 201.8 L714.0 201.8 L721.0 201.8 L728.0 201.6 L735.0 201.3 L742.0 200.8 L749.0 200.3 L756.0 199.6 L763.0 198.8 L770.0 197.9 L777.0 196.9 L784.0 195.8 L791.0 194.7 L798.0 193.4" fill="none" stroke="#c6f000" stroke-width="4"/><path d="M0.0 208.4 L7.0 208.8 L14.0 209.2 L21.0 209.4 L28.0 209.6 L35.0 209.8 L42.0 209.8 L49.0 209.7 L56.0 209.6 L63.0 209.3 L70.0 208.9 L77.0 208.5 L84.0 207.9 L91.0 207.2 L98.0 206.4 L105.0 205.5 L112.0 204.5 L119.0 203.5 L126.0 202.3 L133.0 201.2 L140.0 199.9 L147.0 198.7 L154.0 197.4 L161.0 196.2 L168.0 194.9 L175.0 193.7 L182.0 192.6 L189.0 191.5 L196.0 190.5 L203.0 189.6 L210.0 188.8 L217.0 188.2 L224.0 187.7 L231.0 187.3 L238.0 187.1 L245.0 187.1 L252.0 187.2 L259.0 187.5 L266.0 188.0 L273.0 188.5 L280.0 189.3 L287.0 190.1 L294.0 191.1 L301.0 192.2 L308.0 193.3 L315.0 194.6 L322.0 195.8 L329.0 197.1 L336.0 198.3 L343.0 199.6 L350.0 200.7 L357.0 201.9 L364.0 202.9 L371.0 203.8 L378.0 204.6 L385.0 205.3 L392.0 205.9 L399.0 206.3 L406.0 206.7 L413.0 206.8 L420.0 206.9 L427.0 206.8 L434.0 206.6 L441.0 206.4 L448.0 206.0 L455.0 205.6 L462.0 205.1 L469.0 204.6 L476.0 204.1 L483.0 203.6 L490.0 203.1 L497.0 202.7 L504.0 202.2 L511.0 201.9 L518.0 201.5 L525.0 201.3 L532.0 201.2 L539.0 201.1 L546.0 201.1 L553.0 201.2 L560.0 201.4 L567.0 201.7 L574.0 202.0 L581.0 202.5 L588.0 203.0 L595.0 203.5 L602.0 204.2 L609.0 204.8 L616.0 205.5 L623.0 206.2 L630.0 207.0 L637.0 207.7 L644.0 208.4 L651.0 209.0 L658.0 209.7 L665.0 210.2 L672.0 210.7 L679.0 211.2 L686.0 211.5 L693.0 211.8 L700.0 211.9 L707.0 211.9 L714.0 211.8 L721.0 211.6 L728.0 211.3 L735.0 210.8 L742.0 210.3 L749.0 209.6 L756.0 208.8 L763.0 207.9 L770.0 206.9 L777.0 205.8 L784.0 204.6 L791.0 203.4 L798.0 202.1" fill="none" stroke="#c6f000" stroke-width="4"/><path d="M0.0 218.9 L7.0 219.2 L14.0 219.4 L21.0 219.6 L28.0 219.7 L35.0 219.7 L42.0 219.6 L49.0 219.5 L56.0 219.2 L63.0 218.8 L70.0 218.3 L77.0 217.7 L84.0 217.0 L91.0 216.2 L98.0 215.3 L105.0 214.3 L112.0 213.3 L119.0 212.1 L126.0 210.9 L133.0 209.7 L140.0 208.5 L147.0 207.2 L154.0 205.9 L161.0 204.6 L168.0 203.4 L175.0 202.2 L182.0 201.1 L189.0 200.1 L196.0 199.1 L203.0 198.3 L210.0 197.6 L217.0 197.0 L224.0 196.6 L231.0 196.3 L238.0 196.2 L245.0 196.3 L252.0 196.5 L259.0 196.8 L266.0 197.4 L273.0 198.0 L280.0 198.8 L287.0 199.8 L294.0 200.8 L301.0 201.9 L308.0 203.1 L315.0 204.4 L322.0 205.7 L329.0 207.0 L336.0 208.3 L343.0 209.5 L350.0 210.7 L357.0 211.9 L364.0 212.9 L371.0 213.9 L378.0 214.7 L385.0 215.4 L392.0 216.0 L399.0 216.5 L406.0 216.8 L413.0 217.0 L420.0 217.1 L427.0 217.0 L434.0 216.9 L441.0 216.7 L448.0 216.4 L455.0 216.0 L462.0 215.6 L469.0 215.2 L476.0 214.7 L483.0 214.2 L490.0 213.8 L497.0 213.4 L504.0 213.0 L511.0 212.7 L518.0 212.5 L525.0 212.3 L532.0 212.2 L539.0 212.2 L546.0 212.2 L553.0 212.4 L560.0 212.6 L567.0 212.9 L574.0 213.3 L581.0 213.7 L588.0 214.2 L595.0 214.8 L602.0 215.4 L609.0 216.1 L616.0 216.7 L623.0 217.4 L630.0 218.1 L637.0 218.7 L644.0 219.4 L651.0 219.9 L658.0 220.5 L665.0 220.9 L672.0 221.3 L679.0 221.6 L686.0 221.9 L693.0 222.0 L700.0 222.0 L707.0 221.9 L714.0 221.6 L721.0 221.3 L728.0 220.8 L735.0 220.2 L742.0 219.5 L749.0 218.7 L756.0 217.8 L763.0 216.8 L770.0 215.7 L777.0 214.5 L784.0 213.3 L791.0 212.0 L798.0 210.6" fill="none" stroke="#c6f000" stroke-width="4"/><path d="M0.0 229.2 L7.0 229.4 L14.0 229.6 L21.0 229.6 L28.0 229.6 L35.0 229.5 L42.0 229.3 L49.0 229.0 L56.0 228.6 L63.0 228.1 L70.0 227.5 L77.0 226.8 L84.0 226.0 L91.0 225.1 L98.0 224.1 L105.0 223.1 L112.0 221.9 L119.0 220.7 L126.0 219.5 L133.0 218.2 L140.0 216.9 L147.0 215.7 L154.0 214.4 L161.0 213.1 L168.0 211.9 L175.0 210.8 L182.0 209.7 L189.0 208.7 L196.0 207.8 L203.0 207.1 L210.0 206.5 L217.0 206.0 L224.0 205.6 L231.0 205.5 L238.0 205.4 L245.0 205.6 L252.0 205.9 L259.0 206.3 L266.0 206.9 L273.0 207.7 L280.0 208.5 L287.0 209.5 L294.0 210.6 L301.0 211.8 L308.0 213.0 L315.0 214.3 L322.0 215.7 L329.0 217.0 L336.0 218.3 L343.0 219.5 L350.0 220.8 L357.0 221.9 L364.0 223.0 L371.0 223.9 L378.0 224.8 L385.0 225.5 L392.0 226.1 L399.0 226.6 L406.0 226.9 L413.0 227.1 L420.0 227.2 L427.0 227.2 L434.0 227.1 L441.0 226.9 L448.0 226.7 L455.0 226.4 L462.0 226.0 L469.0 225.6 L476.0 225.2 L483.0 224.8 L490.0 224.4 L497.0 224.1 L504.0 223.8 L511.0 223.5 L518.0 223.3 L525.0 223.2 L532.0 223.2 L539.0 223.2 L546.0 223.3 L553.0 223.5 L560.0 223.7 L567.0 224.1 L574.0 224.5 L581.0 224.9 L588.0 225.4 L595.0 226.0 L602.0 226.6 L609.0 227.2 L616.0 227.8 L623.0 228.4 L630.0 229.1 L637.0 229.6 L644.0 230.2 L651.0 230.7 L658.0 231.1 L665.0 231.5 L672.0 231.7 L679.0 231.9 L686.0 232.0 L693.0 232.0 L700.0 231.9 L707.0 231.6 L714.0 231.3 L721.0 230.8 L728.0 230.2 L735.0 229.5 L742.0 228.7 L749.0 227.7 L756.0 226.7 L763.0 225.6 L770.0 224.4 L777.0 223.2 L784.0 221.9 L791.0 220.5 L798.0 219.1" fill="none" stroke="#c6f000" stroke-width="4"/><path d="M0.0 239.4 L7.0 239.5 L14.0 239.5 L21.0 239.5 L28.0 239.4 L35.0 239.2 L42.0 238.9 L49.0 238.5 L56.0 238.0 L63.0 237.3 L70.0 236.6 L77.0 235.8 L84.0 234.9 L91.0 234.0 L98.0 232.9 L105.0 231.8 L112.0 230.6 L119.0 229.3 L126.0 228.0 L133.0 226.8 L140.0 225.5 L147.0 224.2 L154.0 222.9 L161.0 221.7 L168.0 220.5 L175.0 219.4 L182.0 218.4 L189.0 217.5 L196.0 216.7 L203.0 216.0 L210.0 215.5 L217.0 215.1 L224.0 214.8 L231.0 214.8 L238.0 214.8 L245.0 215.1 L252.0 215.4 L259.0 216.0 L266.0 216.7 L273.0 217.5 L280.0 218.4 L287.0 219.5 L294.0 220.6 L301.0 221.8 L308.0 223.1 L315.0 224.4 L322.0 225.7 L329.0 227.1 L336.0 228.4 L343.0 229.7 L350.0 230.9 L357.0 232.0 L364.0 233.1 L371.0 234.0 L378.0 234.9 L385.0 235.6 L392.0 236.2 L399.0 236.7 L406.0 237.0 L413.0 237.3 L420.0 237.4 L427.0 237.4 L434.0 237.3 L441.0 237.2 L448.0 237.0 L455.0 236.7 L462.0 236.4 L469.0 236.1 L476.0 235.7 L483.0 235.4 L490.0 235.1 L497.0 234.8 L504.0 234.5 L511.0 234.3 L518.0 234.2 L525.0 234.1 L532.0 234.1 L539.0 234.2 L546.0 234.3 L553.0 234.5 L560.0 234.8 L567.0 235.2 L574.0 235.6 L581.0 236.0 L588.0 236.5 L595.0 237.1 L602.0 237.6 L609.0 238.2 L616.0 238.8 L623.0 239.3 L630.0 239.9 L637.0 240.4 L644.0 240.9 L651.0 241.2 L658.0 241.6 L665.0 241.8 L672.0 242.0 L679.0 242.0 L686.0 242.0 L693.0 241.9 L700.0 241.6 L707.0 241.2 L714.0 240.7 L721.0 240.1 L728.0 239.4 L735.0 238.6 L742.0 237.6 L749.0 236.6 L756.0 235.5 L763.0 234.3 L770.0 233.1 L777.0 231.7 L784.0 230.4 L791.0 229.0 L798.0 227.6" fill="none" stroke="#c6f000" stroke-width="4"/><path d="M0.0 249.4 L7.0 249.4 L14.0 249.4 L21.0 249.2 L28.0 249.0 L35.0 248.7 L42.0 248.3 L49.0 247.8 L56.0 247.2 L63.0 246.4 L70.0 245.6 L77.0 244.7 L84.0 243.8 L91.0 242.7 L98.0 241.6 L105.0 240.4 L112.0 239.1 L119.0 237.9 L126.0 236.6 L133.0 235.3 L140.0 234.0 L147.0 232.7 L154.0 231.5 L161.0 230.3 L168.0 229.2 L175.0 228.1 L182.0 227.2 L189.0 226.4 L196.0 225.7 L203.0 225.1 L210.0 224.7 L217.0 224.4 L224.0 224.2 L231.0 224.2 L238.0 224.4 L245.0 224.7 L252.0 225.2 L259.0 225.8 L266.0 226.6 L273.0 227.5 L280.0 228.5 L287.0 229.6 L294.0 230.8 L301.0 232.0 L308.0 233.3 L315.0 234.6 L322.0 236.0 L329.0 237.3 L336.0 238.6 L343.0 239.9 L350.0 241.1 L357.0 242.2 L364.0 243.2 L371.0 244.2 L378.0 245.0 L385.0 245.7 L392.0 246.3 L399.0 246.8 L406.0 247.2 L413.0 247.4 L420.0 247.5 L427.0 247.6 L434.0 247.5 L441.0 247.4 L448.0 247.3 L455.0 247.0 L462.0 246.8 L469.0 246.5 L476.0 246.2 L483.0 245.9 L490.0 245.6 L497.0 245.4 L504.0 245.2 L511.0 245.1 L518.0 245.0 L525.0 244.9 L532.0 245.0 L539.0 245.1 L546.0 245.3 L553.0 245.5 L560.0 245.8 L567.0 246.2 L574.0 246.6 L581.0 247.0 L588.0 247.5 L595.0 248.0 L602.0 248.6 L609.0 249.1 L616.0 249.6 L623.0 250.1 L630.0 250.6 L637.0 251.0 L644.0 251.4 L651.0 251.7 L658.0 251.9 L665.0 252.0 L672.0 252.0 L679.0 252.0 L686.0 251.8 L693.0 251.5 L700.0 251.1 L707.0 250.6 L714.0 250.0 L721.0 249.3 L728.0 248.5 L735.0 247.5 L742.0 246.5 L749.0 245.4 L756.0 244.2 L763.0 242.9 L770.0 241.6 L777.0 240.3 L784.0 238.9 L791.0 237.5 L798.0 236.1" fill="none" stroke="#c6f000" stroke-width="4"/><path d="M0.0 259.3 L7.0 259.2 L14.0 259.0 L21.0 258.8 L28.0 258.5 L35.0 258.1 L42.0 257.6 L49.0 256.9 L56.0 256.2 L63.0 255.4 L70.0 254.5 L77.0 253.6 L84.0 252.5 L91.0 251.4 L98.0 250.2 L105.0 249.0 L112.0 247.7 L119.0 246.4 L126.0 245.1 L133.0 243.8 L140.0 242.6 L147.0 241.3 L154.0 240.1 L161.0 239.0 L168.0 238.0 L175.0 237.0 L182.0 236.2 L189.0 235.4 L196.0 234.8 L203.0 234.3 L210.0 234.0 L217.0 233.8 L224.0 233.8 L231.0 233.9 L238.0 234.2 L245.0 234.6 L252.0 235.2 L259.0 235.9 L266.0 236.7 L273.0 237.7 L280.0 238.7 L287.0 239.9 L294.0 241.1 L301.0 242.4 L308.0 243.7 L315.0 245.0 L322.0 246.4 L329.0 247.7 L336.0 249.0 L343.0 250.2 L350.0 251.4 L357.0 252.5 L364.0 253.5 L371.0 254.4 L378.0 255.2 L385.0 255.9 L392.0 256.5 L399.0 257.0 L406.0 257.3 L413.0 257.6 L420.0 257.7 L427.0 257.8 L434.0 257.8 L441.0 257.7 L448.0 257.5 L455.0 257.3 L462.0 257.1 L469.0 256.9 L476.0 256.6 L483.0 256.4 L490.0 256.2 L497.0 256.0 L504.0 255.9 L511.0 255.8 L518.0 255.7 L525.0 255.7 L532.0 255.8 L539.0 256.0 L546.0 256.2 L553.0 256.4 L560.0 256.7 L567.0 257.1 L574.0 257.5 L581.0 258.0 L588.0 258.4 L595.0 258.9 L602.0 259.4 L609.0 259.9 L616.0 260.3 L623.0 260.7 L630.0 261.1 L637.0 261.4 L644.0 261.7 L651.0 261.9 L658.0 262.0 L665.0 262.0 L672.0 261.9 L679.0 261.8 L686.0 261.5 L693.0 261.1 L700.0 260.5 L707.0 259.9 L714.0 259.2 L721.0 258.3 L728.0 257.4 L735.0 256.4 L742.0 255.3 L749.0 254.1 L756.0 252.8 L763.0 251.5 L770.0 250.2 L777.0 248.8 L784.0 247.4 L791.0 246.0 L798.0 244.7" fill="none" stroke="#c6f000" stroke-width="4"/><path d="M0.0 269.0 L7.0 268.9 L14.0 268.6 L21.0 268.3 L28.0 267.8 L35.0 267.3 L42.0 266.7 L49.0 266.0 L56.0 265.2 L63.0 264.3 L70.0 263.4 L77.0 262.3 L84.0 261.2 L91.0 260.0 L98.0 258.8 L105.0 257.6 L112.0 256.3 L119.0 255.0 L126.0 253.7 L133.0 252.5 L140.0 251.2 L147.0 250.0 L154.0 248.9 L161.0 247.9 L168.0 246.9 L175.0 246.0 L182.0 245.3 L189.0 244.7 L196.0 244.2 L203.0 243.8 L210.0 243.6 L217.0 243.5 L224.0 243.6 L231.0 243.8 L238.0 244.2 L245.0 244.7 L252.0 245.4 L259.0 246.2 L266.0 247.1 L273.0 248.1 L280.0 249.2 L287.0 250.4 L294.0 251.6 L301.0 252.9 L308.0 254.2 L315.0 255.6 L322.0 256.9 L329.0 258.2 L336.0 259.5 L343.0 260.7 L350.0 261.9 L357.0 262.9 L364.0 263.9 L371.0 264.8 L378.0 265.6 L385.0 266.2 L392.0 266.8 L399.0 267.2 L406.0 267.6 L413.0 267.8 L420.0 268.0 L427.0 268.1 L434.0 268.0 L441.0 268.0 L448.0 267.8 L455.0 267.7 L462.0 267.5 L469.0 267.3 L476.0 267.1 L483.0 266.9 L490.0 266.7 L497.0 266.6 L504.0 266.5 L511.0 266.4 L518.0 266.4 L525.0 266.5 L532.0 266.6 L539.0 266.8 L546.0 267.0 L553.0 267.3 L560.0 267.6 L567.0 268.0 L574.0 268.3 L581.0 268.8 L588.0 269.2 L595.0 269.6 L602.0 270.1 L609.0 270.5 L616.0 270.9 L623.0 271.2 L630.0 271.5 L637.0 271.7 L644.0 271.9 L651.0 272.0 L658.0 272.0 L665.0 271.9 L672.0 271.7 L679.0 271.4 L686.0 271.0 L693.0 270.4 L700.0 269.8 L707.0 269.1 L714.0 268.2 L721.0 267.3 L728.0 266.2 L735.0 265.1 L742.0 263.9 L749.0 262.7 L756.0 261.4 L763.0 260.0 L770.0 258.7 L777.0 257.3 L784.0 255.9 L791.0 254.5 L798.0 253.2" fill="none" stroke="#c6f000" stroke-width="4"/><path d="M0.0 278.6 L7.0 278.4 L14.0 278.0 L21.0 277.6 L28.0 277.1 L35.0 276.5 L42.0 275.8 L49.0 275.0 L56.0 274.1 L63.0 273.2 L70.0 272.1 L77.0 271.0 L84.0 269.9 L91.0 268.7 L98.0 267.4 L105.0 266.2 L112.0 264.9 L119.0 263.6 L126.0 262.4 L133.0 261.1 L140.0 260.0 L147.0 258.8 L154.0 257.8 L161.0 256.8 L168.0 256.0 L175.0 255.2 L182.0 254.6 L189.0 254.1 L196.0 253.7 L203.0 253.5 L210.0 253.4 L217.0 253.4 L224.0 253.6 L231.0 254.0 L238.0 254.4 L245.0 255.1 L252.0 255.8 L259.0 256.7 L266.0 257.7 L273.0 258.7 L280.0 259.9 L287.0 261.1 L294.0 262.4 L301.0 263.7 L308.0 265.0 L315.0 266.3 L322.0 267.6 L329.0 268.9 L336.0 270.2 L343.0 271.3 L350.0 272.5 L357.0 273.5 L364.0 274.4 L371.0 275.3 L378.0 276.0 L385.0 276.6 L392.0 277.2 L399.0 277.6 L406.0 277.9 L413.0 278.1 L420.0 278.3 L427.0 278.3 L434.0 278.3 L441.0 278.3 L448.0 278.2 L455.0 278.0 L462.0 277.9 L469.0 277.7 L476.0 277.5 L483.0 277.4 L490.0 277.3 L497.0 277.2 L504.0 277.1 L511.0 277.1 L518.0 277.1 L525.0 277.2 L532.0 277.3 L539.0 277.5 L546.0 277.8 L553.0 278.0 L560.0 278.4 L567.0 278.7 L574.0 279.1 L581.0 279.5 L588.0 279.9 L595.0 280.2 L602.0 280.6 L609.0 281.0 L616.0 281.3 L623.0 281.5 L630.0 281.7 L637.0 281.9 L644.0 281.9 L651.0 281.9 L658.0 281.8 L665.0 281.6 L672.0 281.2 L679.0 280.8 L686.0 280.3 L693.0 279.6 L700.0 278.9 L707.0 278.1 L714.0 277.1 L721.0 276.1 L728.0 275.0 L735.0 273.8 L742.0 272.5 L749.0 271.2 L756.0 269.9 L763.0 268.5 L770.0 267.2 L777.0 265.8 L784.0 264.4 L791.0 263.1 L798.0 261.8" fill="none" stroke="#c6f000" stroke-width="4"/><path d="M0.0 288.1 L7.0 287.8 L14.0 287.4 L21.0 286.9 L28.0 286.2 L35.0 285.6 L42.0 284.8 L49.0 283.9 L56.0 283.0 L63.0 282.0 L70.0 280.9 L77.0 279.7 L84.0 278.5 L91.0 277.3 L98.0 276.1 L105.0 274.8 L112.0 273.6 L119.0 272.3 L126.0 271.1 L133.0 269.9 L140.0 268.8 L147.0 267.8 L154.0 266.8 L161.0 266.0 L168.0 265.2 L175.0 264.6 L182.0 264.1 L189.0 263.7 L196.0 263.4 L203.0 263.3 L210.0 263.3 L217.0 263.5 L224.0 263.8 L231.0 264.3 L238.0 264.9 L245.0 265.6 L252.0 266.5 L259.0 267.4 L266.0 268.4 L273.0 269.6 L280.0 270.8 L287.0 272.0 L294.0 273.3 L301.0 274.6 L308.0 275.9 L315.0 277.2 L322.0 278.5 L329.0 279.8 L336.0 281.0 L343.0 282.1 L350.0 283.2 L357.0 284.2 L364.0 285.0 L371.0 285.8 L378.0 286.5 L385.0 287.1 L392.0 287.6 L399.0 288.0 L406.0 288.3 L413.0 288.5 L420.0 288.6 L427.0 288.7 L434.0 288.7 L441.0 288.6 L448.0 288.5 L455.0 288.4 L462.0 288.3 L469.0 288.1 L476.0 288.0 L483.0 287.9 L490.0 287.8 L497.0 287.7 L504.0 287.7 L511.0 287.7 L518.0 287.8 L525.0 287.9 L532.0 288.0 L539.0 288.2 L546.0 288.4 L553.0 288.7 L560.0 289.0 L567.0 289.3 L574.0 289.7 L581.0 290.0 L588.0 290.4 L595.0 290.7 L602.0 291.0 L609.0 291.3 L616.0 291.5 L623.0 291.7 L630.0 291.8 L637.0 291.9 L644.0 291.8 L651.0 291.7 L658.0 291.4 L665.0 291.1 L672.0 290.7 L679.0 290.1 L686.0 289.5 L693.0 288.7 L700.0 287.9 L707.0 287.0 L714.0 285.9 L721.0 284.8 L728.0 283.6 L735.0 282.4 L742.0 281.1 L749.0 279.8 L756.0 278.4 L763.0 277.1 L770.0 275.7 L777.0 274.3 L784.0 273.0 L791.0 271.8 L798.0 270.5" fill="none" stroke="#c6f000" stroke-width="4"/><path d="M0.0 297.5 L7.0 297.1 L14.0 296.6 L21.0 296.0 L28.0 295.3 L35.0 294.5 L42.0 293.7 L49.0 292.8 L56.0 291.8 L63.0 290.7 L70.0 289.6 L77.0 288.4 L84.0 287.2 L91.0 286.0 L98.0 284.8 L105.0 283.5 L112.0 282.3 L119.0 281.1 L126.0 279.9 L133.0 278.8 L140.0 277.8 L147.0 276.9 L154.0 276.0 L161.0 275.3 L168.0 274.6 L175.0 274.1 L182.0 273.7 L189.0 273.5 L196.0 273.4 L203.0 273.4 L210.0 273.6 L217.0 273.9 L224.0 274.3 L231.0 274.9 L238.0 275.6 L245.0 276.4 L252.0 277.3 L259.0 278.3 L266.0 279.4 L273.0 280.6 L280.0 281.8 L287.0 283.1 L294.0 284.4 L301.0 285.7 L308.0 287.0 L315.0 288.3 L322.0 289.6 L329.0 290.8 L336.0 291.9 L343.0 293.0 L350.0 294.0 L357.0 295.0 L364.0 295.8 L371.0 296.5 L378.0 297.2 L385.0 297.7 L392.0 298.1 L399.0 298.5 L406.0 298.7 L413.0 298.9 L420.0 299.0 L427.0 299.1 L434.0 299.1 L441.0 299.0 L448.0 298.9 L455.0 298.8 L462.0 298.7 L469.0 298.6 L476.0 298.4 L483.0 298.3 L490.0 298.3 L497.0 298.2 L504.0 298.2 L511.0 298.2 L518.0 298.3 L525.0 298.4 L532.0 298.6 L539.0 298.8 L546.0 299.0 L553.0 299.3 L560.0 299.6 L567.0 299.9 L574.0 300.2 L581.0 300.5 L588.0 300.8 L595.0 301.1 L602.0 301.3 L609.0 301.5 L616.0 301.7 L623.0 301.7 L630.0 301.8 L637.0 301.7 L644.0 301.5 L651.0 301.3 L658.0 300.9 L665.0 300.5 L672.0 300.0 L679.0 299.3 L686.0 298.6 L693.0 297.7 L700.0 296.8 L707.0 295.8 L714.0 294.7 L721.0 293.5 L728.0 292.3 L735.0 291.0 L742.0 289.6 L749.0 288.3 L756.0 287.0 L763.0 285.6 L770.0 284.3 L777.0 283.0 L784.0 281.7 L791.0 280.5 L798.0 279.4" fill="none" stroke="#c6f000" stroke-width="4"/><path d="M0.0 306.8 L7.0 306.3 L14.0 305.7 L21.0 305.1 L28.0 304.3 L35.0 303.5 L42.0 302.6 L49.0 301.6 L56.0 300.5 L63.0 299.4 L70.0 298.3 L77.0 297.1 L84.0 295.9 L91.0 294.7 L98.0 293.5 L105.0 292.3 L112.0 291.1 L119.0 290.0 L126.0 288.9 L133.0 287.9 L140.0 287.0 L147.0 286.1 L154.0 285.4 L161.0 284.8 L168.0 284.2 L175.0 283.9 L182.0 283.6 L189.0 283.5 L196.0 283.5 L203.0 283.7 L210.0 284.0 L217.0 284.4 L224.0 285.0 L231.0 285.7 L238.0 286.5 L245.0 287.4 L252.0 288.4 L259.0 289.5 L266.0 290.6 L273.0 291.8 L280.0 293.1 L287.0 294.4 L294.0 295.7 L301.0 297.0 L308.0 298.3 L315.0 299.5 L322.0 300.8 L329.0 301.9 L336.0 303.0 L343.0 304.0 L350.0 305.0 L357.0 305.9 L364.0 306.6 L371.0 307.3 L378.0 307.9 L385.0 308.3 L392.0 308.7 L399.0 309.0 L406.0 309.3 L413.0 309.4 L420.0 309.5 L427.0 309.5 L434.0 309.5 L441.0 309.4 L448.0 309.3 L455.0 309.2 L462.0 309.1 L469.0 309.0 L476.0 308.9 L483.0 308.8 L490.0 308.7 L497.0 308.7 L504.0 308.7 L511.0 308.8 L518.0 308.8 L525.0 309.0 L532.0 309.1 L539.0 309.3 L546.0 309.6 L553.0 309.8 L560.0 310.1 L567.0 310.3 L574.0 310.6 L581.0 310.9 L588.0 311.1 L595.0 311.3 L602.0 311.5 L609.0 311.6 L616.0 311.6 L623.0 311.6 L630.0 311.5 L637.0 311.4 L644.0 311.1 L651.0 310.8 L658.0 310.3 L665.0 309.8 L672.0 309.1 L679.0 308.4 L686.0 307.5 L693.0 306.6 L700.0 305.6 L707.0 304.5 L714.0 303.3 L721.0 302.1 L728.0 300.8 L735.0 299.5 L742.0 298.2 L749.0 296.9 L756.0 295.5 L763.0 294.2 L770.0 292.9 L777.0 291.7 L784.0 290.5 L791.0 289.3 L798.0 288.3" fill="none" stroke="#c6f000" stroke-width="4"/></g>
<circle cx="400" cy="150" r="120" fill="none" stroke="#ff2e93" stroke-width="6"/>
<circle cx="400" cy="150" r="127" fill="none" stroke="#0a0b08" stroke-width="5"/>
</svg>
